<mxfile host="app.diagrams.net" modified="2020-07-22T06:59:54.198Z" agent="5.0 (Macintosh)" etag="ycm39YD4w-mA1MgvWUhE" version="13.4.9" type="github">
  <diagram id="6a731a19-8d31-9384-78a2-239565b7b9f0" name="Page-1">
    <mxGraphModel dx="1395" dy="682" grid="1" gridSize="10" guides="1" tooltips="1" connect="1" arrows="1" fold="1" page="1" pageScale="1" pageWidth="827" pageHeight="1169" background="#ffffff" math="0" shadow="0">
      <root>
        <mxCell id="0" />
        <mxCell id="1" parent="0" />
        <mxCell id="2109" value="Internet" style="shape=mxgraph.cisco.storage.cloud;html=1;dashed=0;strokeColor=#23445D;fillColor=#ffffff;strokeWidth=2;fontFamily=Helvetica;fontSize=24;fontColor=#23445D;align=center;fontStyle=1" parent="1" vertex="1">
          <mxGeometry x="736" y="61" width="186" height="106" as="geometry" />
        </mxCell>
        <mxCell id="dMkXRGYsvUkfnQJ_dTJu-2257" value="" style="shape=mxgraph.cisco.routers.10700;html=1;pointerEvents=1;dashed=0;fillColor=#036897;strokeColor=#ffffff;strokeWidth=2;verticalLabelPosition=bottom;verticalAlign=top;align=center;outlineConnect=0;" parent="1" vertex="1">
          <mxGeometry x="790" y="193.75" width="78" height="53" as="geometry" />
        </mxCell>
        <mxCell id="dMkXRGYsvUkfnQJ_dTJu-2258" value="" style="shape=mxgraph.cisco.switches.workgroup_switch;html=1;pointerEvents=1;dashed=0;fillColor=#036897;strokeColor=#ffffff;strokeWidth=2;verticalLabelPosition=bottom;verticalAlign=top;align=center;outlineConnect=0;" parent="1" vertex="1">
          <mxGeometry x="778.5" y="350" width="101" height="50" as="geometry" />
        </mxCell>
        <mxCell id="dMkXRGYsvUkfnQJ_dTJu-2262" value="" style="shape=mxgraph.cisco.routers.10700;html=1;pointerEvents=1;dashed=0;fillColor=#036897;strokeColor=#ffffff;strokeWidth=2;verticalLabelPosition=bottom;verticalAlign=top;align=center;outlineConnect=0;" parent="1" vertex="1">
          <mxGeometry x="784" y="470" width="90" height="33" as="geometry" />
        </mxCell>
        <mxCell id="dMkXRGYsvUkfnQJ_dTJu-2264" value="" style="line;strokeWidth=2;html=1;rotation=90;" parent="1" vertex="1">
          <mxGeometry x="796.25" y="193.75" width="65.5" height="10" as="geometry" />
        </mxCell>
        <mxCell id="dMkXRGYsvUkfnQJ_dTJu-2265" value="" style="line;strokeWidth=2;html=1;rotation=90;" parent="1" vertex="1">
          <mxGeometry x="796.25" y="310" width="65.5" height="10" as="geometry" />
        </mxCell>
        <mxCell id="dMkXRGYsvUkfnQJ_dTJu-2266" value="" style="line;strokeWidth=2;html=1;rotation=90;" parent="1" vertex="1">
          <mxGeometry x="796.25" y="430" width="65.5" height="10" as="geometry" />
        </mxCell>
        <mxCell id="dMkXRGYsvUkfnQJ_dTJu-2267" value="" style="shape=mxgraph.cisco.switches.workgroup_switch;html=1;pointerEvents=1;dashed=0;fillColor=#036897;strokeColor=#ffffff;strokeWidth=2;verticalLabelPosition=bottom;verticalAlign=top;align=center;outlineConnect=0;" parent="1" vertex="1">
          <mxGeometry x="773" y="560" width="101" height="50" as="geometry" />
        </mxCell>
        <mxCell id="dMkXRGYsvUkfnQJ_dTJu-2268" value="" style="line;strokeWidth=2;html=1;rotation=90;" parent="1" vertex="1">
          <mxGeometry x="796.25" y="520" width="65.5" height="10" as="geometry" />
        </mxCell>
        <mxCell id="dMkXRGYsvUkfnQJ_dTJu-2269" value="Private Switch" style="text;html=1;strokeColor=none;fillColor=none;align=center;verticalAlign=middle;whiteSpace=wrap;rounded=0;" parent="1" vertex="1">
          <mxGeometry x="664.5" y="560" width="110" height="20" as="geometry" />
        </mxCell>
        <mxCell id="dMkXRGYsvUkfnQJ_dTJu-2270" value="Mikrotik Router" style="text;html=1;strokeColor=none;fillColor=none;align=center;verticalAlign=middle;whiteSpace=wrap;rounded=0;" parent="1" vertex="1">
          <mxGeometry x="664.5" y="470" width="120" height="20" as="geometry" />
        </mxCell>
        <mxCell id="dMkXRGYsvUkfnQJ_dTJu-2271" value="Public Switch" style="text;html=1;strokeColor=none;fillColor=none;align=center;verticalAlign=middle;whiteSpace=wrap;rounded=0;" parent="1" vertex="1">
          <mxGeometry x="680" y="350" width="120" height="20" as="geometry" />
        </mxCell>
        <mxCell id="dMkXRGYsvUkfnQJ_dTJu-2272" value="ether-1 WAN" style="text;html=1;strokeColor=none;fillColor=none;align=center;verticalAlign=middle;whiteSpace=wrap;rounded=0;" parent="1" vertex="1">
          <mxGeometry x="827" y="450" width="63" height="10" as="geometry" />
        </mxCell>
        <mxCell id="dMkXRGYsvUkfnQJ_dTJu-2274" value="ether-2 LAN" style="text;html=1;strokeColor=none;fillColor=none;align=center;verticalAlign=middle;whiteSpace=wrap;rounded=0;" parent="1" vertex="1">
          <mxGeometry x="789" y="503.5" width="203" height="20" as="geometry" />
        </mxCell>
        <mxCell id="dMkXRGYsvUkfnQJ_dTJu-2277" value="&lt;div&gt;VLAN10 192.168.10.0/24&lt;/div&gt;&lt;div&gt;VLAN20 192.168.20.0/24&lt;/div&gt;&lt;div&gt;VLAN30 192.168.30.0/24&lt;br&gt;&lt;/div&gt;" style="text;html=1;strokeColor=none;fillColor=none;align=center;verticalAlign=middle;whiteSpace=wrap;rounded=0;" parent="1" vertex="1">
          <mxGeometry x="901" y="470" width="200" height="77" as="geometry" />
        </mxCell>
        <mxCell id="dMkXRGYsvUkfnQJ_dTJu-2278" value="" style="shape=mxgraph.cisco.switches.workgroup_switch;html=1;pointerEvents=1;dashed=0;fillColor=#036897;strokeColor=#ffffff;strokeWidth=2;verticalLabelPosition=bottom;verticalAlign=top;align=center;outlineConnect=0;" parent="1" vertex="1">
          <mxGeometry x="410" y="690" width="101" height="50" as="geometry" />
        </mxCell>
        <mxCell id="dMkXRGYsvUkfnQJ_dTJu-2279" value="" style="shape=mxgraph.cisco.switches.workgroup_switch;html=1;pointerEvents=1;dashed=0;fillColor=#036897;strokeColor=#ffffff;strokeWidth=2;verticalLabelPosition=bottom;verticalAlign=top;align=center;outlineConnect=0;" parent="1" vertex="1">
          <mxGeometry x="605.5" y="690" width="101" height="50" as="geometry" />
        </mxCell>
        <mxCell id="dMkXRGYsvUkfnQJ_dTJu-2280" value="" style="shape=mxgraph.cisco.switches.workgroup_switch;html=1;pointerEvents=1;dashed=0;fillColor=#036897;strokeColor=#ffffff;strokeWidth=2;verticalLabelPosition=bottom;verticalAlign=top;align=center;outlineConnect=0;" parent="1" vertex="1">
          <mxGeometry x="778.5" y="690" width="101" height="50" as="geometry" />
        </mxCell>
        <mxCell id="dMkXRGYsvUkfnQJ_dTJu-2281" value="" style="shape=mxgraph.cisco.switches.workgroup_switch;html=1;pointerEvents=1;dashed=0;fillColor=#036897;strokeColor=#ffffff;strokeWidth=2;verticalLabelPosition=bottom;verticalAlign=top;align=center;outlineConnect=0;" parent="1" vertex="1">
          <mxGeometry x="970" y="690" width="101" height="50" as="geometry" />
        </mxCell>
        <mxCell id="dMkXRGYsvUkfnQJ_dTJu-2282" value="" style="shape=mxgraph.cisco.switches.workgroup_switch;html=1;pointerEvents=1;dashed=0;fillColor=#036897;strokeColor=#ffffff;strokeWidth=2;verticalLabelPosition=bottom;verticalAlign=top;align=center;outlineConnect=0;" parent="1" vertex="1">
          <mxGeometry x="1160" y="690" width="101" height="50" as="geometry" />
        </mxCell>
        <mxCell id="dMkXRGYsvUkfnQJ_dTJu-2285" value="&amp;nbsp;SW IP VLAN20 192.168.20.103 " style="text;html=1;strokeColor=none;fillColor=none;align=center;verticalAlign=middle;whiteSpace=wrap;rounded=0;" parent="1" vertex="1">
          <mxGeometry x="861.75" y="560" width="208" height="20" as="geometry" />
        </mxCell>
        <mxCell id="dMkXRGYsvUkfnQJ_dTJu-2287" value="&amp;nbsp;SW IP VLAN20 192.168.20.101 " style="text;html=1;strokeColor=none;fillColor=none;align=center;verticalAlign=middle;whiteSpace=wrap;rounded=0;" parent="1" vertex="1">
          <mxGeometry x="350" y="750" width="208" height="20" as="geometry" />
        </mxCell>
        <mxCell id="dMkXRGYsvUkfnQJ_dTJu-2288" value="&amp;nbsp;SW IP VLAN20 192.168.20.102 " style="text;html=1;strokeColor=none;fillColor=none;align=center;verticalAlign=middle;whiteSpace=wrap;rounded=0;" parent="1" vertex="1">
          <mxGeometry x="552" y="750" width="208" height="20" as="geometry" />
        </mxCell>
        <mxCell id="dMkXRGYsvUkfnQJ_dTJu-2289" value="&amp;nbsp;SW IP VLAN20 192.168.20.104 " style="text;html=1;strokeColor=none;fillColor=none;align=center;verticalAlign=middle;whiteSpace=wrap;rounded=0;" parent="1" vertex="1">
          <mxGeometry x="740" y="750" width="208" height="20" as="geometry" />
        </mxCell>
        <mxCell id="dMkXRGYsvUkfnQJ_dTJu-2290" value="&amp;nbsp;SW IP VLAN20 192.168.20.105 " style="text;html=1;strokeColor=none;fillColor=none;align=center;verticalAlign=middle;whiteSpace=wrap;rounded=0;" parent="1" vertex="1">
          <mxGeometry x="940" y="750" width="208" height="20" as="geometry" />
        </mxCell>
        <mxCell id="dMkXRGYsvUkfnQJ_dTJu-2291" value="&amp;nbsp;SW IP VLAN20 192.168.20.106 " style="text;html=1;strokeColor=none;fillColor=none;align=center;verticalAlign=middle;whiteSpace=wrap;rounded=0;" parent="1" vertex="1">
          <mxGeometry x="1160" y="750" width="208" height="20" as="geometry" />
        </mxCell>
        <mxCell id="dMkXRGYsvUkfnQJ_dTJu-2292" value="&lt;div&gt;VLAN10 = IPMI NETWORK&lt;br&gt;&lt;/div&gt;&lt;div&gt;VLAN20 = SWITCH IP&lt;br&gt;&lt;/div&gt;&lt;div&gt;VLAN30 = SERVER PRIVATE NETWORK &lt;br&gt;&lt;/div&gt;" style="text;html=1;strokeColor=none;fillColor=none;align=center;verticalAlign=middle;whiteSpace=wrap;rounded=0;" parent="1" vertex="1">
          <mxGeometry x="1060" y="470" width="320" height="77" as="geometry" />
        </mxCell>
        <mxCell id="dMkXRGYsvUkfnQJ_dTJu-2293" value="ASR1001-X" style="text;html=1;strokeColor=none;fillColor=none;align=center;verticalAlign=middle;whiteSpace=wrap;rounded=0;" parent="1" vertex="1">
          <mxGeometry x="879.5" y="234.5" width="120" height="20" as="geometry" />
        </mxCell>
        <mxCell id="dMkXRGYsvUkfnQJ_dTJu-2295" value="" style="endArrow=none;html=1;exitX=1;exitY=0;exitDx=0;exitDy=0;exitPerimeter=0;" parent="1" source="dMkXRGYsvUkfnQJ_dTJu-2278" target="dMkXRGYsvUkfnQJ_dTJu-2267" edge="1">
          <mxGeometry width="50" height="50" relative="1" as="geometry">
            <mxPoint x="680" y="570" as="sourcePoint" />
            <mxPoint x="730" y="520" as="targetPoint" />
          </mxGeometry>
        </mxCell>
        <mxCell id="dMkXRGYsvUkfnQJ_dTJu-2296" value="" style="endArrow=none;html=1;" parent="1" source="dMkXRGYsvUkfnQJ_dTJu-2279" edge="1">
          <mxGeometry width="50" height="50" relative="1" as="geometry">
            <mxPoint x="690.2857142857142" y="686" as="sourcePoint" />
            <mxPoint x="800" y="606" as="targetPoint" />
          </mxGeometry>
        </mxCell>
        <mxCell id="dMkXRGYsvUkfnQJ_dTJu-2297" value="" style="endArrow=none;html=1;entryX=0.5;entryY=0.98;entryDx=0;entryDy=0;entryPerimeter=0;" parent="1" source="dMkXRGYsvUkfnQJ_dTJu-2280" target="dMkXRGYsvUkfnQJ_dTJu-2267" edge="1">
          <mxGeometry width="50" height="50" relative="1" as="geometry">
            <mxPoint x="698.2115384615386" y="700" as="sourcePoint" />
            <mxPoint x="801.2884615384614" y="620" as="targetPoint" />
          </mxGeometry>
        </mxCell>
        <mxCell id="dMkXRGYsvUkfnQJ_dTJu-2298" value="" style="endArrow=none;html=1;entryX=0.87;entryY=0.74;entryDx=0;entryDy=0;entryPerimeter=0;" parent="1" source="dMkXRGYsvUkfnQJ_dTJu-2281" target="dMkXRGYsvUkfnQJ_dTJu-2267" edge="1">
          <mxGeometry width="50" height="50" relative="1" as="geometry">
            <mxPoint x="837.7028301886794" y="700" as="sourcePoint" />
            <mxPoint x="890" y="610" as="targetPoint" />
          </mxGeometry>
        </mxCell>
        <mxCell id="dMkXRGYsvUkfnQJ_dTJu-2299" value="" style="endArrow=none;html=1;exitX=0.98;exitY=0.5;exitDx=0;exitDy=0;exitPerimeter=0;" parent="1" source="dMkXRGYsvUkfnQJ_dTJu-2267" target="dMkXRGYsvUkfnQJ_dTJu-2282" edge="1">
          <mxGeometry width="50" height="50" relative="1" as="geometry">
            <mxPoint x="847.7028301886794" y="710" as="sourcePoint" />
            <mxPoint x="843.5" y="629" as="targetPoint" />
          </mxGeometry>
        </mxCell>
        <mxCell id="JyQcavUIu3-2LBXcQX2L-2235" value="GigabitEthernet0/23" style="text;html=1;strokeColor=none;fillColor=none;align=center;verticalAlign=middle;whiteSpace=wrap;rounded=0;" parent="1" vertex="1">
          <mxGeometry x="838" y="540" width="110" height="20" as="geometry" />
        </mxCell>
        <mxCell id="JyQcavUIu3-2LBXcQX2L-2236" value="GigabitEthernet0/23" style="text;html=1;strokeColor=none;fillColor=none;align=center;verticalAlign=middle;whiteSpace=wrap;rounded=0;" parent="1" vertex="1">
          <mxGeometry x="838" y="400" width="110" height="20" as="geometry" />
        </mxCell>
        <mxCell id="JyQcavUIu3-2LBXcQX2L-2237" value="" style="shape=mxgraph.cisco.switches.workgroup_switch;html=1;pointerEvents=1;dashed=0;fillColor=#036897;strokeColor=#ffffff;strokeWidth=2;verticalLabelPosition=bottom;verticalAlign=top;align=center;outlineConnect=0;" parent="1" vertex="1">
          <mxGeometry x="778.5" y="270" width="101" height="50" as="geometry" />
        </mxCell>
        <mxCell id="JyQcavUIu3-2LBXcQX2L-2242" value="" style="line;strokeWidth=2;html=1;rotation=90;" parent="1" vertex="1">
          <mxGeometry x="817.12" y="254.5" width="23.75" height="10" as="geometry" />
        </mxCell>
        <mxCell id="JyQcavUIu3-2LBXcQX2L-2243" value="Core Switch" style="text;html=1;strokeColor=none;fillColor=none;align=center;verticalAlign=middle;whiteSpace=wrap;rounded=0;" parent="1" vertex="1">
          <mxGeometry x="690" y="270" width="120" height="20" as="geometry" />
        </mxCell>
        <mxCell id="JyQcavUIu3-2LBXcQX2L-2250" value="&lt;div&gt;103.x.x.x/24&lt;/div&gt;" style="text;html=1;strokeColor=none;fillColor=none;align=center;verticalAlign=middle;whiteSpace=wrap;rounded=0;" parent="1" vertex="1">
          <mxGeometry x="901" y="450" width="63" height="10" as="geometry" />
        </mxCell>
      </root>
    </mxGraphModel>
  </diagram>
</mxfile>
